<svg xmlns="http://www.w3.org/2000/svg" xmlns:xlink="http://www.w3.org/1999/xlink" width="56" height="43" viewBox="0 0 56 43"><defs><path id="dkxma" d="M796.16 1090.17a.92.92 0 0 1-1.33 0l-13.45-13.5a.93.93 0 0 1 0-1.34l13.45-13.5a.92.92 0 0 1 1.33 0l1.44 1.44c.37.38.37.96 0 1.34L786.25 1076l11.35 11.4c.37.37.37.95 0 1.32zm7.73 5.05c-.14.49-.66.78-1.12.63l-1.8-.49a.94.94 0 0 1-.63-1.16l10.77-37.42c.14-.5.66-.78 1.12-.64l1.8.5c.48.14.77.66.63 1.16zm16.28-5.05a.92.92 0 0 1-1.33 0l-1.44-1.45a.93.93 0 0 1 0-1.33l11.35-11.39-11.35-11.4a.93.93 0 0 1 0-1.33l1.44-1.44a.92.92 0 0 1 1.33 0l13.45 13.5c.38.38.38.96 0 1.34z"/></defs><g><g transform="translate(-779 -1054)"><use fill="#c0301c" xlink:href="#dkxma"/></g></g></svg>