<svg xmlns="http://www.w3.org/2000/svg" xmlns:xlink="http://www.w3.org/1999/xlink" width="46" height="43" viewBox="0 0 46 43"><defs><path id="ajcka" d="M414.73 1067.22a102.7 102.7 0 0 1 4.76 11.77c-.5.03-.98.06-1.47.06-2.56 0-5.12-.08-7.68-.1zM396 1096c1.63 0 3.23-.08 4.86-.36.36-.06.88-.21 1.24-.21 3 0 6.02.52 9.02.52.02-.24.05-.47.05-.7 0-.53 0-1.02-.03-1.52-1.47-.2-5.27-.28-5.27-2.29 0-.99 2.61-7.81 3.28-9.32l11.63.05c.42 1.07 3.75 8.8 3.75 9.74 0 .96-1.37 1.15-2.07 1.3l-3.38.73c-.08.68-.1 1.36-.1 2.03 3.38-.1 6.76-.39 10.15-.39 3.28 0 6.56.42 9.84.42 0-.23.03-.44.03-.68 0-.5-.08-.99-.16-1.48-1.21-.47-3.59-.63-4.44-1.3a4.57 4.57 0 0 1-.9-1.49c-1.3-2.65-2.2-5.44-3.36-8.15-1.97-4.58-3.75-9.24-5.69-13.85l-5.3-12.5c-.07-.19-.18-.37-.28-.55h-3.3l-7.24 18.85-6.13 16.05c-1.08 2.8-3.72 2.29-6.15 3.04z"/></defs><g><g transform="translate(-394 -1054)"><use fill="#fff" xlink:href="#ajcka"/></g></g></svg>