<svg xmlns="http://www.w3.org/2000/svg" xmlns:xlink="http://www.w3.org/1999/xlink" width="51" height="51" viewBox="0 0 51 51"><defs><path id="n23va" d="M1220.99 1075.86a23.99 23.99 0 1 1-47.98.01 23.99 23.99 0 0 1 47.98 0zm-33.66-18.16l5.2 5.2a13.86 13.86 0 0 1 8.94 0l5.2-5.2a20.68 20.68 0 0 0-19.34 0zm-3.3 22.63a13.87 13.87 0 0 1 0-8.94l-5.2-5.2a20.68 20.68 0 0 0 0 19.34zm22.63 13.69l-5.2-5.2a13.74 13.74 0 0 1-8.94 0l-5.2 5.2a20.68 20.68 0 0 0 19.34 0zm.62-18.16a10.29 10.29 0 1 0-20.57 0 10.29 10.29 0 0 0 20.57 0zm7.87 9.67a20.68 20.68 0 0 0 0-19.34l-5.2 5.2a13.87 13.87 0 0 1 0 8.94z"/></defs><g><g transform="translate(-1171 -1050)"><use fill="#c0301c" xlink:href="#n23va"/></g></g></svg>